rec1_007.mot
nRows=30
nColumns=19

name rec1_007.mot
datacolumns 19
datarows 30
range 5.0020397496 5.0600398973
endheader
time	ground_force_vx	ground_force_vy	ground_force_vz	ground_force_px	ground_force_py	ground_force_pz	1_ground_force_vx	1_ground_force_vy	1_ground_force_vz	1_ground_force_px	1_ground_force_py	1_ground_force_pz	ground_torque_x	ground_torque_y	ground_torque_z	1_ground_torque_x	1_ground_torque_y	1_ground_torque_z	
        5.0020397496	       80.0596458772	      723.1555414080	      -40.5567149306	       -0.7000000000	       -0.0180000000	        0.5600000000	        0.3921406454	       34.3786656231	        0.7013883041	       -0.7000000000	       -0.0180000000	       -0.5600000000	      358.2880505390	      -13.2379411112	      566.8518552185	      -15.1299798927	        0.6666075175	       38.9033188246	
        5.0040394457	       80.9789723436	      722.6913410344	      -40.0065126212	       -0.7000000000	       -0.0180000000	        0.5600000000	        1.0240063525	       40.0120315179	        0.6053048999	       -0.7000000000	       -0.0180000000	       -0.5600000000	      358.1855895919	      -13.8864098832	      565.5458382158	      -17.8573678339	        1.0909482821	       45.9261852486	
        5.0060398619	       81.9160688274	      722.0968118434	      -39.4373301052	       -0.7000000000	       -0.0180000000	        0.5600000000	        1.7236247393	       46.3474331362	        0.4756600980	       -0.7000000000	       -0.0180000000	       -0.5600000000	      358.0216376202	      -14.5522188895	      564.1394096342	      -20.9273396087	        1.5873884640	       53.8040455959	
        5.0080395980	       82.8670483902	      721.3676171207	      -38.8518971000	       -0.7000000000	       -0.0180000000	        0.5600000000	        2.4712197999	       53.4162764624	        0.3078964934	       -0.7000000000	       -0.0180000000	       -0.5600000000	      357.7940262490	      -15.2325203759	      562.6315846950	      -24.3560465297	        2.1519063085	       62.5706986648	
        5.0100397740	       83.8269634521	      720.4989470915	      -38.2524412026	       -0.7000000000	       -0.0180000000	        0.5600000000	        3.2451311270	       61.2429759912	        0.0979173395	       -0.7000000000	       -0.0180000000	       -0.5600000000	      357.5003417570	      -15.9249203599	      561.0207437305	      -28.1563830221	        2.7792492248	       72.2511955536	
        5.0120394701	       84.7903146905	      719.4856207413	      -37.6407539238	       -0.7000000000	       -0.0180000000	        0.5600000000	        4.0213565450	       69.8443658918	       -0.1582732327	       -0.7000000000	       -0.0180000000	       -0.5600000000	      357.1379758789	      -16.6274837509	      559.3047528075	      -32.3376226118	        3.4632352775	       82.8615395121	
        5.0140398062	       85.7517881191	      718.3222032168	      -37.0182752584	       -0.7000000000	       -0.0180000000	        0.5600000000	        4.7726303619	       79.2290717336	       -0.4651623353	       -0.7000000000	       -0.0180000000	       -0.5600000000	      356.7041374585	      -17.3384546249	      557.4810874430	      -36.9050744599	        4.1971331341	       94.4081988948	
        5.0160396625	       86.7068679785	      717.0030395809	      -36.3862888775	       -0.7000000000	       -0.0180000000	        0.5600000000	        5.4679545442	       89.3964640331	       -0.8284226567	       -0.7000000000	       -0.0180000000	       -0.5600000000	      356.1958572376	      -18.0554286256	      555.5469075027	      -41.8595420769	        4.9741962880	      106.8869474945	
        5.0180398387	       87.6520765379	      715.5222372447	      -35.7461206164	       -0.7000000000	       -0.0180000000	        0.5600000000	        6.0731884578	      100.3354982084	       -1.2554371413	       -0.7000000000	       -0.0180000000	       -0.5600000000	      355.6100085026	      -18.7751639521	      553.4990750905	      -47.1967434263	        5.7883041926	      120.2815095313	
        5.0200395746	       88.5846884117	      713.8736008968	      -35.0991281088	       -0.7000000000	       -0.0180000000	        0.5600000000	        6.5528703123	      112.0238964340	       -1.7556184559	       -0.7000000000	       -0.0180000000	       -0.5600000000	      354.9432508460	      -19.4944352069	      551.3340637803	      -52.9068680047	        6.6348138393	      134.5625835217	
        5.0220399107	       89.5021273233	      712.0505161981	      -34.4467181923	       -0.7000000000	       -0.0180000000	        0.5600000000	        6.8728389186	      124.4279255327	       -2.3402680622	       -0.7000000000	       -0.0180000000	       -0.5600000000	      354.1920104093	      -20.2105965077	      549.0477937033	      -58.9743717689	        7.5112380750	      149.6876955553	
        5.0240395670	       90.4014812987	      710.0459596875	      -33.7902310829	       -0.7000000000	       -0.0180000000	        0.5600000000	        7.0026913513	      137.5027540434	       -3.0219218466	       -0.7000000000	       -0.0180000000	       -0.5600000000	      353.3525074664	      -20.9215337234	      546.6355720929	      -65.3779954782	        8.4174775589	      165.6018637194	
        5.0260399031	       91.2794184711	      707.8526142463	      -33.1306302190	       -0.7000000000	       -0.0180000000	        0.5600000000	        6.9172576658	      151.1932589071	       -3.8132608070	       -0.7000000000	       -0.0180000000	       -0.5600000000	      352.4207620299	      -21.6252478710	      544.0921632507	      -72.0909984678	        9.3553833481	      182.2386455504	
        5.0280395992	       92.1325635781	      705.4629412748	      -32.4683429045	       -0.7000000000	       -0.0180000000	        0.5600000000	        6.5968159999	      165.4351911846	       -4.7252940397	       -0.7000000000	       -0.0180000000	       -0.5600000000	      351.3926560510	      -22.3196187474	      541.4118414277	      -79.0817348034	       10.3271156285	      199.5214264512	
        5.0300398953	       92.9581185452	      702.8693065388	      -31.8030993933	       -0.7000000000	       -0.0180000000	        0.5600000000	        6.0264018721	      180.1562974078	       -5.7651961738	       -0.7000000000	       -0.0180000000	       -0.5600000000	      350.2639977667	      -23.0032248096	      538.5884359888	      -86.3143612620	       11.3328060404	      217.3645497435	
        5.0320396314	       93.7544076057	      700.0642506703	      -31.1338268932	       -0.7000000000	       -0.0180000000	        0.5600000000	        5.1950349869	      195.2772183072	       -6.9344832168	       -0.7000000000	       -0.0180000000	       -0.5600000000	      349.0306073261	      -23.6761661921	      535.6155061248	      -93.7494451698	       12.3684817388	      235.6741887553	
        5.0340399275	       94.5211476163	      697.0408100920	      -30.4588406321	       -0.7000000000	       -0.0180000000	        0.5600000000	        4.0955308316	      210.7125817365	       -8.2277414698	       -0.7000000000	       -0.0180000000	       -0.5600000000	      347.6884856847	      -24.3398814316	      532.4865890037	     -101.3446565698	       13.4247209336	      254.3496146419	
        5.0360396637	       95.2592900556	      693.7926789499	      -29.7760898129	       -0.7000000000	       -0.0180000000	        0.5600000000	        2.7251539650	      226.3723210066	       -9.6324286682	       -0.7000000000	       -0.0180000000	       -0.5600000000	      346.2338877136	      -24.9966712262	      529.1953037782	     -109.0554923247	       14.4867214382	      273.2847194780	
        5.0380401598	       95.9705255196	      690.3142155595	      -29.0835409306	       -0.7000000000	       -0.0180000000	        0.5600000000	        1.0869222849	      242.1629427009	      -11.1298110462	       -0.7000000000	       -0.0180000000	       -0.5600000000	      344.6633734630	      -25.6488385522	      525.7353880273	     -116.8358896968	       15.5356757690	      292.3693506435	
        5.0400396959	       96.6568397555	      686.6006265549	      -28.3796926317	       -0.7000000000	       -0.0180000000	        0.5600000000	       -0.8091771352	      257.9887099936	      -12.6965951862	       -0.7000000000	       -0.0180000000	       -0.5600000000	      342.9739956570	      -26.2977159332	      522.1009792719	     -124.6388180834	       16.5507774224	      311.4904542156	
        5.0420400320	       97.3203995445	      682.6483056210	      -27.6638465575	       -0.7000000000	       -0.0180000000	        0.5600000000	       -2.9457961347	      273.7527724544	      -14.3072727432	       -0.7000000000	       -0.0180000000	       -0.5600000000	      341.1634444611	      -26.9437152946	      518.2870888288	     -132.4167849065	       17.5117500010	      330.5329459248	
        5.0440397281	       97.9638093780	      678.4549925964	      -26.9362374208	       -0.7000000000	       -0.0180000000	        0.5600000000	       -5.2989561151	      289.3583783293	      -15.9366295074	       -0.7000000000	       -0.0180000000	       -0.5600000000	      339.2301108767	      -27.5869321572	      514.2899604360	     -140.1223134062	       18.4011877850	      349.3807533384	
        5.0460400643	       98.5905511098	      674.0198470927	      -26.1979743806	       -0.7000000000	       -0.0180000000	        0.5600000000	       -7.8398010640	      304.7100713440	      -17.5618293468	       -0.7000000000	       -0.0180000000	       -0.5600000000	      337.1731316235	      -28.2276219005	      510.1073222192	     -147.7084475674	       19.2061636913	      367.9182238186	
        5.0480397604	       99.2052587422	      669.3436231093	      -25.4506621090	       -0.7000000000	       -0.0180000000	        0.5600000000	      -10.5367891698	      319.7148008017	      -19.1640855704	       -0.7000000000	       -0.0180000000	       -0.5600000000	      334.9924047138	      -28.8662547124	      505.7386973735	     -155.1291676170	       19.9192855103	      386.0316126831	
        5.0500400566	       99.8135793350	      664.4288019804	      -24.6960224684	       -0.7000000000	       -0.0180000000	        0.5600000000	      -13.3576023472	      334.2833419228	      -20.7293255603	       -0.7000000000	       -0.0180000000	       -0.5600000000	      332.6886469335	      -29.5028505424	      501.1857066524	     -162.3399238395	       20.5386699405	      403.6110538290	
        5.0520397928	      100.4214855929	      659.2795320982	      -23.9354946357	       -0.7000000000	       -0.0180000000	        0.5600000000	      -16.2702703684	      348.3317869867	      -22.2476964903	       -0.7000000000	       -0.0180000000	       -0.5600000000	      330.2633973886	      -30.1369042954	      496.4521931993	     -169.2982505032	       21.0668179311	      420.5526289250	
        5.0540401289	      101.0341381060	      653.9013943760	      -23.1698103152	       -0.7000000000	       -0.0180000000	        0.5600000000	      -19.2432869532	      361.7826181478	      -23.7122366674	       -0.7000000000	       -0.0180000000	       -0.5600000000	      327.7189224360	      -30.7684042026	      491.5441193706	     -175.9642367249	       21.5087822210	      436.7597752368	
        5.0560398250	      101.6547875687	      648.3011744179	      -22.3987778726	       -0.7000000000	       -0.0180000000	        0.5600000000	      -22.2450989441	      374.5657563050	      -25.1164830038	       -0.7000000000	       -0.0180000000	       -0.5600000000	      325.0581631525	      -31.3983819255	      486.4693080705	     -182.3011768336	       21.8693875458	      452.1446327702	
        5.0580402410	      102.2841877192	      642.4866463758	      -21.6211519315	       -0.7000000000	       -0.0180000000	        0.5600000000	      -25.2436491583	      386.6198061819	      -26.4517579905	       -0.7000000000	       -0.0180000000	       -0.5600000000	      322.2846120092	      -32.0287151444	      481.2370531247	     -188.2763967964	       22.1503036607	      466.6295459493	
        5.0600398973	      102.9206748330	      636.4661590342	      -20.8347356963	       -0.7000000000	       -0.0180000000	        0.5600000000	      -28.2064347656	      397.8933062846	      -27.7050057967	       -0.7000000000	       -0.0180000000	       -0.5600000000	      319.4020743991	      -32.6615623913	      475.8575648631	     -193.8619524632	       22.3476779028	      480.1485430417	
